<?xml version="1.0" encoding="utf-8"?>
<!-- Generator: Adobe Illustrator 22.0.1, SVG Export Plug-In . SVG Version: 6.00 Build 0)  -->
<svg version="1.1" id="Ebene_1" xmlns="http://www.w3.org/2000/svg" xmlns:xlink="http://www.w3.org/1999/xlink" x="0px" y="0px"
	 viewBox="0 0 245.2 271.8" style="enable-background:new 0 0 245.2 271.8;" xml:space="preserve">
<style type="text/css">
	.st0{fill:#FFFFFF;}
</style>
<g>
	<path class="st0" d="M197.2,136.3c8.6,8.5,16.7,16.4,24.7,24.5c18.1,18.3,23.2,45.8,13,69.4c-10.1,23.7-33.5,39-59.2,38.6
		c-16.9-0.3-31.5-6.3-43.7-18.1c-3-2.9-5.6-6.1-8.8-9.7c-1.8,2.2-2.9,3.5-4,4.9C102,266.5,74.1,274.1,48.6,265
		c-25-8.9-41.7-32.7-41.8-59.5c0-45.8,0-91.6,0-137.5c0-27.9,16.5-51.8,42.1-60.8c26-9.2,53.7-1.2,71.4,20.7c0.6,0.8,1.2,1.5,2.4,3
		c3.3-3.2,6.3-6.4,9.5-9.4C152,2.4,182-1.9,206.3,11c37.6,20,45.3,70.5,15.4,100.8C213.8,119.9,205.7,127.8,197.2,136.3z"/>
</g>
</svg>
